<svg width="40" height="40" viewBox="0 0 40 40" fill="none" xmlns="http://www.w3.org/2000/svg">
    <g style="mix-blend-mode:difference">
        <path d="M5.52621 13.8733C6.49773 9.73161 9.73162 6.49773 13.8733 5.52621C16.8644 4.8246 19.9773 4.8246 22.9684 5.52621C27.1101 6.49773 30.344 9.73162 31.3155 13.8733C32.0172 16.8644 32.0172 19.9773 31.3155 22.9684C30.344 27.1101 27.1101 30.344 22.9684 31.3155C19.9773 32.0172 16.8644 32.0172 13.8733 31.3155C9.73162 30.344 6.49773 27.1101 5.52621 22.9684C4.8246 19.9773 4.8246 16.8644 5.52621 13.8733Z" fill="#363853" fill-opacity="0.15"/>
        <path d="M5.52621 22.9684L6.74318 22.683L5.52621 22.9684ZM5.52621 13.8733L6.74318 14.1588L5.52621 13.8733ZM31.3155 13.8733L32.5325 13.5879L32.5325 13.5879L31.3155 13.8733ZM31.3155 22.9684L32.5325 23.2539L31.3155 22.9684ZM22.9684 31.3155L22.683 30.0986L22.9684 31.3155ZM13.8733 31.3155L13.5879 32.5325L13.8733 31.3155ZM13.8733 5.52621L13.5879 4.30924L13.8733 5.52621ZM22.9684 5.52621L23.2539 4.30924L22.9684 5.52621ZM34.1161 35.8839C34.6043 36.372 35.3957 36.372 35.8839 35.8839C36.372 35.3957 36.372 34.6043 35.8839 34.1161L34.1161 35.8839ZM6.74318 22.683C6.08561 19.8796 6.08561 16.9621 6.74318 14.1588L4.30925 13.5879C3.56358 16.7667 3.56358 20.075 4.30925 23.2539L6.74318 22.683ZM30.0986 14.1588C30.7561 16.9621 30.7561 19.8796 30.0986 22.683L32.5325 23.2539C33.2782 20.075 33.2782 16.7667 32.5325 13.5879L30.0986 14.1588ZM22.683 30.0986C19.8796 30.7561 16.9621 30.7561 14.1588 30.0986L13.5879 32.5325C16.7667 33.2782 20.075 33.2782 23.2539 32.5325L22.683 30.0986ZM14.1588 6.74318C16.9621 6.08561 19.8796 6.08561 22.683 6.74318L23.2539 4.30924C20.075 3.56358 16.7667 3.56359 13.5879 4.30924L14.1588 6.74318ZM14.1588 30.0986C10.4793 29.2355 7.60628 26.3625 6.74318 22.683L4.30925 23.2539C5.38918 27.8578 8.98396 31.4526 13.5879 32.5325L14.1588 30.0986ZM23.2539 32.5325C27.8578 31.4526 31.4526 27.8578 32.5325 23.2539L30.0986 22.683C29.2355 26.3625 26.3625 29.2355 22.683 30.0986L23.2539 32.5325ZM22.683 6.74318C26.3625 7.60628 29.2355 10.4793 30.0986 14.1588L32.5325 13.5879C31.4526 8.98396 27.8578 5.38918 23.2539 4.30924L22.683 6.74318ZM13.5879 4.30924C8.98396 5.38918 5.38918 8.98395 4.30925 13.5879L6.74318 14.1588C7.60628 10.4793 10.4793 7.60628 14.1588 6.74318L13.5879 4.30924ZM28.008 29.7758L34.1161 35.8839L35.8839 34.1161L29.7758 28.008L28.008 29.7758Z" fill="#4D4D4D"/>
    </g>
</svg>
