<svg width="48" height="48" viewBox="0 0 48 48" fill="none" xmlns="http://www.w3.org/2000/svg">
    <g style="mix-blend-mode:difference">
        <path d="M38.58 29.2748V19.4381V19.0151L29.6569 10.0285L29.6568 10.0284C26.9902 7.34282 25.6569 6 24 6C22.3431 6 21.0098 7.34282 18.3431 10.0285L9.41998 19.0151V19.4381V29.2748C9.41998 35.0642 13.3768 40.0921 18.9735 41.4142C22.2796 42.1953 25.7204 42.1953 29.0265 41.4142C34.6231 40.0921 38.58 35.0642 38.58 29.2748Z" fill="#363853" fill-opacity="0.15"/>
        <path d="M29.0265 41.4142L28.7391 40.1977L29.0265 41.4142ZM18.9735 41.4142L19.2608 40.1977H19.2608L18.9735 41.4142ZM29.6569 10.0285L30.5439 9.14771L30.513 9.1166L30.48 9.08773L29.6569 10.0285ZM29.6568 10.0284L28.7698 10.9092L28.8007 10.9403L28.8337 10.9692L29.6568 10.0284ZM18.3431 10.0285L19.2302 10.9092V10.9092L18.3431 10.0285ZM19.4368 36.6406L18.2083 36.41V36.41L19.4368 36.6406ZM19.4755 36.4345L20.7041 36.6651V36.6651L19.4755 36.4345ZM28.5245 36.4345L27.2959 36.6651V36.6651L28.5245 36.4345ZM28.5632 36.6406L29.7917 36.41V36.41L28.5632 36.6406ZM27.9836 41.1038L29.1123 41.6409V41.6409L27.9836 41.1038ZM26.6213 41.0574C26.3246 41.6808 26.5895 42.4266 27.2129 42.7233C27.8362 43.0199 28.5821 42.7551 28.8787 42.1317L26.6213 41.0574ZM20.0164 41.1038L18.8877 41.6409L18.8877 41.6409L20.0164 41.1038ZM19.1213 42.1317C19.418 42.7551 20.1638 43.0199 20.7871 42.7233C21.4105 42.4266 21.6754 41.6808 21.3787 41.0574L19.1213 42.1317ZM22.7221 32.8851L22.3879 31.6806H22.3879L22.7221 32.8851ZM25.2779 32.8851L25.6121 31.6806L25.2779 32.8851ZM5.11299 21.5787C4.62657 22.0685 4.62937 22.86 5.11925 23.3464C5.60914 23.8328 6.40059 23.83 6.88701 23.3402L5.11299 21.5787ZM41.113 23.3402C41.5994 23.83 42.3909 23.8328 42.8807 23.3464C43.3706 22.86 43.3734 22.0685 42.887 21.5787L41.113 23.3402ZM37.33 19.4381V29.2748H39.83V19.4381H37.33ZM10.67 29.2748V19.4381H8.16998V29.2748H10.67ZM28.7391 40.1977C25.622 40.9341 22.378 40.9341 19.2608 40.1977L18.6861 42.6307C22.1812 43.4564 25.8188 43.4564 29.3139 42.6307L28.7391 40.1977ZM19.2608 40.1977C14.2338 39.0101 10.67 34.4902 10.67 29.2748H8.16998C8.16998 35.6382 12.5198 41.174 18.6861 42.6307L19.2608 40.1977ZM29.3139 42.6307C35.4801 41.174 39.83 35.6382 39.83 29.2748H37.33C37.33 34.4902 33.7662 39.0101 28.7391 40.1977L29.3139 42.6307ZM30.48 9.08773L30.48 9.08772L28.8337 10.9692L28.8337 10.9692L30.48 9.08773ZM30.5439 9.1477C29.2355 7.83002 28.1674 6.75052 27.2114 6.01593C26.2269 5.25947 25.2144 4.75 24 4.75V7.25C24.4425 7.25 24.925 7.41193 25.6881 7.99829C26.4797 8.60652 27.4115 9.54124 28.7698 10.9092L30.5439 9.1477ZM19.2302 10.9092C20.5884 9.54125 21.5203 8.60653 22.3119 7.99829C23.075 7.41193 23.5575 7.25 24 7.25V4.75C22.7856 4.75 21.7731 5.25947 20.7886 6.01594C19.8326 6.75052 18.7645 7.83003 17.4561 9.14771L19.2302 10.9092ZM20.6654 36.8712L20.7041 36.6651L18.247 36.2039L18.2083 36.41L20.6654 36.8712ZM27.2959 36.6651L27.3346 36.8712L29.7917 36.41L29.753 36.2039L27.2959 36.6651ZM26.8548 40.5666L26.6213 41.0574L28.8787 42.1317L29.1123 41.6409L26.8548 40.5666ZM18.8877 41.6409L19.1213 42.1317L21.3787 41.0574L21.1452 40.5666L18.8877 41.6409ZM27.3346 36.8712C27.5697 38.1234 27.4014 39.4183 26.8548 40.5667L29.1123 41.6409C29.8864 40.0142 30.1242 38.1817 29.7917 36.41L27.3346 36.8712ZM18.2083 36.41C17.8758 38.1817 18.1136 40.0142 18.8877 41.6409L21.1452 40.5666C20.5986 39.4183 20.4303 38.1234 20.6654 36.8712L18.2083 36.41ZM23.0563 34.0896C23.674 33.9182 24.326 33.9182 24.9437 34.0896L25.6121 31.6806C24.5571 31.3879 23.4429 31.3879 22.3879 31.6806L23.0563 34.0896ZM29.753 36.2039C29.3448 34.029 27.7413 32.2714 25.6121 31.6806L24.9437 34.0896C26.1465 34.4234 27.0622 35.4198 27.2959 36.6651L29.753 36.2039ZM20.7041 36.6651C20.9378 35.4198 21.8535 34.4234 23.0563 34.0896L22.3879 31.6806C20.2587 32.2714 18.6552 34.029 18.247 36.2039L20.7041 36.6651ZM17.4561 9.14771L8.53297 18.1343L10.307 19.8958L19.2302 10.9092L17.4561 9.14771ZM8.53297 18.1343L5.11299 21.5787L6.88701 23.3402L10.307 19.8958L8.53297 18.1343ZM10.67 19.4381V19.0151H8.16998V19.4381H10.67ZM28.7698 10.9092L37.693 19.8958L39.467 18.1343L30.5439 9.14771L28.7698 10.9092ZM37.693 19.8958L41.113 23.3402L42.887 21.5787L39.467 18.1343L37.693 19.8958ZM39.83 19.4381V19.0151H37.33V19.4381H39.83Z" fill="#4D4D4D"/>
    </g>
</svg>
