<svg width="39" height="48" viewBox="0 0 39 48" fill="none" xmlns="http://www.w3.org/2000/svg">
    <path d="M15.0801 5.12534C10.26 6.68779 6.49709 10.6082 5.16671 15.5182L5.05912 15.9153C4.19683 19.0978 4.0384 22.4313 4.59494 25.6819L4.64896 25.9973C4.69708 26.2784 4.55258 26.558 4.30313 26.694C2.63351 27.6048 1.5 29.3819 1.5 31.4249C1.5 33.9839 3.29411 36.1887 5.79022 36.6972L6.67244 36.8769C15.138 38.6015 23.862 38.6015 32.3276 36.8769L33.2098 36.6972C35.7059 36.1887 37.5 33.9839 37.5 31.4249C37.5 29.4025 36.3892 27.6407 34.7472 26.7219C34.469 26.5662 34.3074 26.2522 34.3614 25.9368L34.4187 25.6022C34.9665 22.4027 34.8238 19.1223 34.0001 15.983L33.8503 15.412C32.5799 10.57 28.9556 6.70376 24.221 5.1401C21.2639 4.16348 18.0425 4.16507 15.0801 5.12534Z" fill="#363853" fill-opacity="0.15"/>
    <path d="M12.3218 37.7682C17.0923 38.3045 21.9077 38.3045 26.6782 37.7682C26.6444 38.2322 26.5716 38.6929 26.4604 39.1453L26.2636 39.9454C25.6473 42.4519 23.6892 44.4027 21.1893 45.0007C20.0786 45.2664 18.9214 45.2664 17.8107 45.0007C15.3108 44.4027 13.3527 42.4519 12.7364 39.9454L12.5396 39.1453C12.4284 38.6929 12.3556 38.2322 12.3218 37.7682Z" fill="#363853" fill-opacity="0.15"/>
    <path d="M5.16671 15.5182L6.37321 15.8451L6.37321 15.8451L5.16671 15.5182ZM15.0801 5.12534L14.6947 3.93625V3.93625L15.0801 5.12534ZM5.05912 15.9153L3.85263 15.5884V15.5884L5.05912 15.9153ZM4.59494 25.6819L5.82702 25.4709L4.59494 25.6819ZM4.64896 25.9973L3.41689 26.2083L3.41689 26.2083L4.64896 25.9973ZM5.79022 36.6972L6.03974 35.4724L5.79022 36.6972ZM6.67244 36.8769L6.92197 35.6521H6.92197L6.67244 36.8769ZM32.3276 36.8769L32.078 35.6521H32.078L32.3276 36.8769ZM33.2098 36.6972L33.4593 37.922L33.2098 36.6972ZM34.3614 25.9368L35.5935 26.1478L34.3614 25.9368ZM34.4187 25.6022L33.1866 25.3913V25.3913L34.4187 25.6022ZM34.0001 15.983L32.791 16.3002L32.791 16.3002L34.0001 15.983ZM33.8503 15.412L35.0594 15.0948V15.0948L33.8503 15.412ZM24.221 5.1401L24.613 3.95316L24.221 5.1401ZM34.7472 26.7219L34.1368 27.8127L34.7472 26.7219ZM4.30313 26.694L3.70452 25.5967L4.30313 26.694ZM20.75 2C20.75 1.30964 20.1904 0.75 19.5 0.75C18.8096 0.75 18.25 1.30964 18.25 2H20.75ZM18.25 4.41137C18.25 5.10173 18.8096 5.66137 19.5 5.66137C20.1904 5.66137 20.75 5.10173 20.75 4.41137H18.25ZM12.3218 37.7682L12.4615 36.526L10.9659 36.3578L11.0751 37.8588L12.3218 37.7682ZM26.6782 37.7682L27.9249 37.8588L28.0341 36.3578L26.5385 36.526L26.6782 37.7682ZM26.4604 39.1453L27.6742 39.4438L26.4604 39.1453ZM26.2636 39.9454L25.0498 39.6469V39.6469L26.2636 39.9454ZM21.1893 45.0007L21.4801 46.2164L21.1893 45.0007ZM17.8107 45.0007L17.5199 46.2164L17.8107 45.0007ZM12.7364 39.9454L11.5225 40.2438L12.7364 39.9454ZM12.5396 39.1453L13.7535 38.8468L12.5396 39.1453ZM6.37321 15.8451C7.5923 11.3458 11.0442 7.74763 15.4656 6.31443L14.6947 3.93625C9.47586 5.62795 5.40188 9.87054 3.96022 15.1913L6.37321 15.8451ZM6.26562 16.2422L6.37321 15.8451L3.96022 15.1913L3.85263 15.5884L6.26562 16.2422ZM5.82702 25.4709C5.30111 22.3993 5.45084 19.2493 6.26562 16.2422L3.85263 15.5884C2.94283 18.9462 2.77568 22.4633 3.36287 25.8928L5.82702 25.4709ZM5.88103 25.7864L5.82702 25.4709L3.36287 25.8928L3.41689 26.2083L5.88103 25.7864ZM2.75 31.4249C2.75 29.8553 3.61943 28.4909 4.90174 27.7914L3.70452 25.5967C1.64759 26.7188 0.25 28.9085 0.25 31.4249H2.75ZM6.03974 35.4724C4.12976 35.0832 2.75 33.3937 2.75 31.4249H0.25C0.25 34.5741 2.45846 37.2941 5.54069 37.922L6.03974 35.4724ZM6.92197 35.6521L6.03974 35.4724L5.54069 37.922L6.42292 38.1018L6.92197 35.6521ZM32.078 35.6521C23.7771 37.3432 15.2229 37.3432 6.92197 35.6521L6.42292 38.1018C15.0532 39.8599 23.9468 39.8599 32.5771 38.1018L32.078 35.6521ZM32.9603 35.4724L32.078 35.6521L32.5771 38.1018L33.4593 37.922L32.9603 35.4724ZM36.25 31.4249C36.25 33.3937 34.8702 35.0832 32.9603 35.4724L33.4593 37.922C36.5415 37.2941 38.75 34.5741 38.75 31.4249H36.25ZM34.1368 27.8127C35.3981 28.5185 36.25 29.8711 36.25 31.4249H38.75C38.75 28.9338 37.3804 26.7629 35.3576 25.631L34.1368 27.8127ZM33.1866 25.3913L33.1293 25.7259L35.5935 26.1478L35.6508 25.8132L33.1866 25.3913ZM32.791 16.3002C33.5694 19.2671 33.7044 22.3674 33.1866 25.3913L35.6508 25.8132C36.2286 22.438 36.0781 18.9775 35.2092 15.6658L32.791 16.3002ZM32.6412 15.7293L32.791 16.3002L35.2092 15.6658L35.0594 15.0948L32.6412 15.7293ZM23.829 6.32704C28.1595 7.75726 31.4778 11.2948 32.6412 15.7293L35.0594 15.0948C33.6821 9.84518 29.7516 5.65025 24.613 3.95316L23.829 6.32704ZM15.4656 6.31443C18.178 5.43518 21.127 5.43469 23.829 6.32704L24.613 3.95316C21.4007 2.89227 17.907 2.89495 14.6947 3.93625L15.4656 6.31443ZM35.3576 25.631C35.5115 25.7171 35.6345 25.9084 35.5935 26.1478L33.1293 25.7259C32.9804 26.596 33.4265 27.4152 34.1368 27.8127L35.3576 25.631ZM3.41689 26.2083C3.36987 25.9337 3.51126 25.7021 3.70452 25.5967L4.90174 27.7914C5.59389 27.4138 6.02429 26.6231 5.88103 25.7864L3.41689 26.2083ZM18.25 2V4.41137H20.75V2H18.25ZM12.1822 39.0103C17.0455 39.5571 21.9545 39.5571 26.8178 39.0103L26.5385 36.526C21.8608 37.0519 17.1392 37.0519 12.4615 36.526L12.1822 39.0103ZM27.6742 39.4438C27.8022 38.9231 27.886 38.3929 27.9249 37.8588L25.4315 37.6774C25.4028 38.0715 25.341 38.4627 25.2465 38.8468L27.6742 39.4438ZM27.4775 40.2438L27.6742 39.4438L25.2465 38.8468L25.0498 39.6469L27.4775 40.2438ZM21.4801 46.2164C24.4375 45.509 26.75 43.2024 27.4775 40.2438L25.0498 39.6469C24.5446 41.7015 22.9408 43.2965 20.8985 43.785L21.4801 46.2164ZM17.5199 46.2164C18.8217 46.5279 20.1783 46.5279 21.4801 46.2164L20.8985 43.785C19.979 44.005 19.021 44.005 18.1015 43.785L17.5199 46.2164ZM11.5225 40.2438C12.25 43.2024 14.5625 45.509 17.5199 46.2164L18.1015 43.785C16.0592 43.2965 14.4554 41.7015 13.9502 39.6469L11.5225 40.2438ZM11.3258 39.4438L11.5225 40.2438L13.9502 39.6469L13.7535 38.8468L11.3258 39.4438ZM11.0751 37.8588C11.114 38.3929 11.1978 38.9231 11.3258 39.4438L13.7535 38.8468C13.659 38.4627 13.5972 38.0715 13.5685 37.6775L11.0751 37.8588Z" fill="#4D4D4D"/>
</svg>
