<svg width="48" height="48" viewBox="0 0 48 48" fill="none" xmlns="http://www.w3.org/2000/svg">
    <g style="mix-blend-mode:difference">
        <path d="M10 38.2229C10 33.3968 13.3946 29.2859 18.0081 28.5253L18.4236 28.4568C22.1178 27.8477 25.8822 27.8477 29.5764 28.4568L29.9919 28.5253C34.6053 29.2859 38 33.3968 38 38.2229C38 40.309 36.363 42 34.3437 42H13.6563C11.637 42 10 40.309 10 38.2229Z" fill="#4D4D4D" fill-opacity="0.15"/>
        <path d="M32.1667 13.875C32.1667 18.2242 28.5104 21.75 24 21.75C19.4897 21.75 15.8334 18.2242 15.8334 13.875C15.8334 9.52576 19.4897 6 24 6C28.5104 6 32.1667 9.52576 32.1667 13.875Z" fill="#4D4D4D" fill-opacity="0.15"/>
        <path d="M10 38.2229C10 33.3968 13.3946 29.2859 18.0081 28.5253L18.4236 28.4568C22.1178 27.8477 25.8822 27.8477 29.5764 28.4568L29.9919 28.5253C34.6053 29.2859 38 33.3968 38 38.2229C38 40.309 36.363 42 34.3437 42H13.6563C11.637 42 10 40.309 10 38.2229Z" stroke="#4D4D4D" stroke-width="2.5"/>
        <path d="M32.1667 13.875C32.1667 18.2242 28.5104 21.75 24 21.75C19.4897 21.75 15.8334 18.2242 15.8334 13.875C15.8334 9.52576 19.4897 6 24 6C28.5104 6 32.1667 9.52576 32.1667 13.875Z" stroke="#4D4D4D" stroke-width="2.5"/>
    </g>
</svg>
