<svg width="48" height="48" viewBox="0 0 48 48" fill="none" xmlns="http://www.w3.org/2000/svg">
    <path d="M38.58 29.2748V19.4381V19.0151L29.6569 10.0285L29.6568 10.0284C26.9902 7.34282 25.6569 6 24 6C22.3431 6 21.0098 7.34282 18.3431 10.0285L9.41998 19.0151V19.4381V29.2748C9.41998 35.0642 13.3768 40.0921 18.9735 41.4142C22.2796 42.1953 25.7204 42.1953 29.0265 41.4142C34.6231 40.0921 38.58 35.0642 38.58 29.2748Z" fill="#363853" fill-opacity="0.15"/>
    <path d="M29.0265 41.4142L28.8541 40.6843L28.8541 40.6843L29.0265 41.4142ZM18.9735 41.4142L19.1459 40.6843L19.1459 40.6843L18.9735 41.4142ZM29.6569 10.0285L30.1891 9.50001L30.1705 9.48134L30.1507 9.46402L29.6569 10.0285ZM29.6568 10.0284L29.1246 10.5569L29.1432 10.5756L29.163 10.5929L29.6568 10.0284ZM18.3431 10.0285L18.8754 10.5569L18.8754 10.5569L18.3431 10.0285ZM19.4368 36.6406L18.6997 36.5022L18.6997 36.5022L19.4368 36.6406ZM19.4755 36.4345L20.2127 36.5729L20.2127 36.5729L19.4755 36.4345ZM28.5245 36.4345L27.7873 36.5729L27.7873 36.5729L28.5245 36.4345ZM28.5632 36.6406L29.3003 36.5022L29.3003 36.5022L28.5632 36.6406ZM27.9836 41.1038L28.6608 41.4261L28.6608 41.4261L27.9836 41.1038ZM27.0728 41.2723C26.8948 41.6463 27.0537 42.0938 27.4277 42.2718C27.8017 42.4498 28.2492 42.2909 28.4272 41.9168L27.0728 41.2723ZM20.0164 41.1038L19.3392 41.4261L19.3392 41.4261L20.0164 41.1038ZM19.5728 41.9168C19.7508 42.2909 20.1983 42.4498 20.5723 42.2718C20.9463 42.0938 21.1052 41.6463 20.9272 41.2723L19.5728 41.9168ZM22.7221 32.8851L22.5216 32.1624L22.5216 32.1624L22.7221 32.8851ZM25.2779 32.8851L25.4784 32.1624L25.4784 32.1624L25.2779 32.8851ZM5.46779 21.931C5.17594 22.2249 5.17762 22.6998 5.47155 22.9916C5.76548 23.2835 6.24035 23.2818 6.53221 22.9879L5.46779 21.931ZM41.4678 22.9879C41.7596 23.2818 42.2345 23.2835 42.5284 22.9916C42.8224 22.6998 42.8241 22.2249 42.5322 21.931L41.4678 22.9879ZM37.83 19.4381V29.2748H39.33V19.4381H37.83ZM10.17 29.2748V19.4381H8.66998V29.2748H10.17ZM28.8541 40.6843C25.6613 41.4386 22.3386 41.4386 19.1459 40.6843L18.801 42.1441C22.2206 42.952 25.7794 42.952 29.1989 42.1441L28.8541 40.6843ZM19.1459 40.6843C13.891 39.4429 10.17 34.7198 10.17 29.2748H8.66998C8.66998 35.4086 12.8626 40.7413 18.801 42.1441L19.1459 40.6843ZM29.1989 42.1441C35.1373 40.7413 39.33 35.4086 39.33 29.2748H37.83C37.83 34.7198 34.109 39.4429 28.8541 40.6843L29.1989 42.1441ZM30.1507 9.46402L30.1507 9.46401L29.163 10.5929L29.163 10.5929L30.1507 9.46402ZM30.189 9.5C28.8707 8.17226 27.8298 7.12172 26.9067 6.41241C25.9665 5.68997 25.06 5.25 24 5.25V6.75C24.5969 6.75 25.1854 6.98144 25.9928 7.60182C26.8172 8.23532 27.7763 9.199 29.1246 10.5569L30.189 9.5ZM18.8754 10.5569C20.2237 9.199 21.1828 8.23532 22.0072 7.60182C22.8146 6.98144 23.4031 6.75 24 6.75V5.25C22.94 5.25 22.0335 5.68997 21.0933 6.41241C20.1702 7.12172 19.1293 8.17227 17.8109 9.50001L18.8754 10.5569ZM20.174 36.779L20.2127 36.5729L18.7384 36.2962L18.6997 36.5022L20.174 36.779ZM27.7873 36.5729L27.826 36.779L29.3003 36.5022L29.2616 36.2962L27.7873 36.5729ZM27.3063 40.7815L27.0728 41.2723L28.4272 41.9168L28.6608 41.4261L27.3063 40.7815ZM19.3392 41.4261L19.5728 41.9168L20.9272 41.2723L20.6937 40.7815L19.3392 41.4261ZM27.826 36.779C28.0806 38.1351 27.8984 39.5374 27.3063 40.7815L28.6608 41.4261C29.3894 39.895 29.6133 38.17 29.3003 36.5022L27.826 36.779ZM18.6997 36.5022C18.3867 38.17 18.6106 39.895 19.3392 41.4261L20.6937 40.7815C20.1016 39.5374 19.9194 38.1351 20.174 36.779L18.6997 36.5022ZM22.9226 33.6078C23.6278 33.4121 24.3722 33.4121 25.0774 33.6078L25.4784 32.1624C24.5109 31.8939 23.4891 31.8939 22.5216 32.1624L22.9226 33.6078ZM29.2616 36.2962C28.8882 34.3071 27.4224 32.7018 25.4784 32.1624L25.0774 33.6078C26.4655 33.993 27.5187 35.1416 27.7873 36.5729L29.2616 36.2962ZM20.2127 36.5729C20.4813 35.1416 21.5345 33.993 22.9226 33.6078L22.5216 32.1624C20.5776 32.7018 19.1118 34.3071 18.7384 36.2962L20.2127 36.5729ZM17.8109 9.50001L8.88778 18.4866L9.95219 19.5435L18.8754 10.5569L17.8109 9.50001ZM8.88778 18.4866L5.46779 21.931L6.53221 22.9879L9.95219 19.5435L8.88778 18.4866ZM10.17 19.4381V19.0151H8.66998V19.4381H10.17ZM29.1246 10.5569L38.0478 19.5435L39.1122 18.4866L30.1891 9.50001L29.1246 10.5569ZM38.0478 19.5435L41.4678 22.9879L42.5322 21.931L39.1122 18.4866L38.0478 19.5435ZM39.33 19.4381V19.0151H37.83V19.4381H39.33Z" fill="#363853"/>
</svg>
