<svg width="48" height="48" viewBox="0 0 48 48" fill="none" xmlns="http://www.w3.org/2000/svg">
    <g style="mix-blend-mode:difference">
        <path d="M18.0801 6.12534C13.26 7.68779 9.49709 11.6082 8.16671 16.5182L8.05912 16.9153C7.19683 20.0978 7.0384 23.4313 7.59494 26.6819L7.64896 26.9973C7.69708 27.2784 7.55258 27.558 7.30313 27.694C5.63351 28.6048 4.5 30.3819 4.5 32.4249C4.5 34.9839 6.29411 37.1887 8.79022 37.6972L9.67244 37.8769C18.138 39.6015 26.862 39.6015 35.3276 37.8769L36.2098 37.6972C38.7059 37.1887 40.5 34.9839 40.5 32.4249C40.5 30.4025 39.3892 28.6407 37.7472 27.7219C37.469 27.5662 37.3074 27.2522 37.3614 26.9368L37.4187 26.6022C37.9665 23.4027 37.8238 20.1223 37.0001 16.983L36.8503 16.412C35.5799 11.57 31.9556 7.70376 27.221 6.1401C24.2639 5.16348 21.0425 5.16507 18.0801 6.12534Z" fill="#363853" fill-opacity="0.15"/>
        <path d="M15.3218 38.7682C20.0923 39.3045 24.9077 39.3045 29.6782 38.7682C29.6444 39.2322 29.5716 39.6929 29.4604 40.1453L29.2636 40.9454C28.6473 43.4519 26.6892 45.4027 24.1893 46.0007C23.0786 46.2664 21.9214 46.2664 20.8107 46.0007C18.3108 45.4027 16.3527 43.4519 15.7364 40.9454L15.5396 40.1453C15.4284 39.6929 15.3556 39.2322 15.3218 38.7682Z" fill="#363853" fill-opacity="0.15"/>
        <path d="M8.16671 16.5182L9.37321 16.8451L9.37321 16.8451L8.16671 16.5182ZM18.0801 6.12534L17.6947 4.93625V4.93625L18.0801 6.12534ZM8.05912 16.9153L6.85263 16.5884V16.5884L8.05912 16.9153ZM7.59494 26.6819L8.82702 26.4709L7.59494 26.6819ZM7.64896 26.9973L6.41689 27.2083L6.41689 27.2083L7.64896 26.9973ZM8.79022 37.6972L9.03974 36.4724L8.79022 37.6972ZM9.67244 37.8769L9.92197 36.6521H9.92197L9.67244 37.8769ZM35.3276 37.8769L35.078 36.6521H35.078L35.3276 37.8769ZM36.2098 37.6972L36.4593 38.922L36.2098 37.6972ZM37.3614 26.9368L38.5935 27.1478L37.3614 26.9368ZM37.4187 26.6022L36.1866 26.3913V26.3913L37.4187 26.6022ZM37.0001 16.983L35.791 17.3002L35.791 17.3002L37.0001 16.983ZM36.8503 16.412L38.0594 16.0948V16.0948L36.8503 16.412ZM27.221 6.1401L27.613 4.95316L27.221 6.1401ZM37.7472 27.7219L37.1368 28.8127L37.7472 27.7219ZM7.30313 27.694L6.70452 26.5967L7.30313 27.694ZM23.75 3C23.75 2.30964 23.1904 1.75 22.5 1.75C21.8096 1.75 21.25 2.30964 21.25 3H23.75ZM21.25 5.41137C21.25 6.10173 21.8096 6.66137 22.5 6.66137C23.1904 6.66137 23.75 6.10173 23.75 5.41137H21.25ZM15.3218 38.7682L15.4615 37.526L13.9659 37.3578L14.0751 38.8588L15.3218 38.7682ZM29.6782 38.7682L30.9249 38.8588L31.0341 37.3578L29.5385 37.526L29.6782 38.7682ZM29.4604 40.1453L30.6742 40.4438L29.4604 40.1453ZM29.2636 40.9454L28.0498 40.6469V40.6469L29.2636 40.9454ZM24.1893 46.0007L24.4801 47.2164L24.1893 46.0007ZM20.8107 46.0007L20.5199 47.2164L20.8107 46.0007ZM15.7364 40.9454L14.5225 41.2438L15.7364 40.9454ZM15.5396 40.1453L16.7535 39.8468L15.5396 40.1453ZM9.37321 16.8451C10.5923 12.3458 14.0442 8.74763 18.4656 7.31443L17.6947 4.93625C12.4759 6.62795 8.40188 10.8705 6.96022 16.1913L9.37321 16.8451ZM9.26562 17.2422L9.37321 16.8451L6.96022 16.1913L6.85263 16.5884L9.26562 17.2422ZM8.82702 26.4709C8.30111 23.3993 8.45084 20.2493 9.26562 17.2422L6.85263 16.5884C5.94283 19.9462 5.77568 23.4633 6.36287 26.8928L8.82702 26.4709ZM8.88103 26.7864L8.82702 26.4709L6.36287 26.8928L6.41689 27.2083L8.88103 26.7864ZM5.75 32.4249C5.75 30.8553 6.61943 29.4909 7.90174 28.7914L6.70452 26.5967C4.64759 27.7188 3.25 29.9085 3.25 32.4249H5.75ZM9.03974 36.4724C7.12976 36.0832 5.75 34.3937 5.75 32.4249H3.25C3.25 35.5741 5.45846 38.2941 8.54069 38.922L9.03974 36.4724ZM9.92197 36.6521L9.03974 36.4724L8.54069 38.922L9.42292 39.1018L9.92197 36.6521ZM35.078 36.6521C26.7771 38.3432 18.2229 38.3432 9.92197 36.6521L9.42292 39.1018C18.0532 40.8599 26.9468 40.8599 35.5771 39.1018L35.078 36.6521ZM35.9603 36.4724L35.078 36.6521L35.5771 39.1018L36.4593 38.922L35.9603 36.4724ZM39.25 32.4249C39.25 34.3937 37.8702 36.0832 35.9603 36.4724L36.4593 38.922C39.5415 38.2941 41.75 35.5741 41.75 32.4249H39.25ZM37.1368 28.8127C38.3981 29.5185 39.25 30.8711 39.25 32.4249H41.75C41.75 29.9338 40.3804 27.7629 38.3576 26.631L37.1368 28.8127ZM36.1866 26.3913L36.1293 26.7259L38.5935 27.1478L38.6508 26.8132L36.1866 26.3913ZM35.791 17.3002C36.5694 20.2671 36.7044 23.3674 36.1866 26.3913L38.6508 26.8132C39.2286 23.438 39.0781 19.9775 38.2092 16.6658L35.791 17.3002ZM35.6412 16.7293L35.791 17.3002L38.2092 16.6658L38.0594 16.0948L35.6412 16.7293ZM26.829 7.32704C31.1595 8.75726 34.4778 12.2948 35.6412 16.7293L38.0594 16.0948C36.6821 10.8452 32.7516 6.65025 27.613 4.95316L26.829 7.32704ZM18.4656 7.31443C21.178 6.43518 24.127 6.43469 26.829 7.32704L27.613 4.95316C24.4007 3.89227 20.907 3.89495 17.6947 4.93625L18.4656 7.31443ZM38.3576 26.631C38.5115 26.7171 38.6345 26.9084 38.5935 27.1478L36.1293 26.7259C35.9804 27.596 36.4265 28.4152 37.1368 28.8127L38.3576 26.631ZM6.41689 27.2083C6.36987 26.9337 6.51126 26.7021 6.70452 26.5967L7.90174 28.7914C8.59389 28.4138 9.02429 27.6231 8.88103 26.7864L6.41689 27.2083ZM21.25 3V5.41137H23.75V3H21.25ZM15.1822 40.0103C20.0455 40.5571 24.9545 40.5571 29.8178 40.0103L29.5385 37.526C24.8608 38.0519 20.1392 38.0519 15.4615 37.526L15.1822 40.0103ZM30.6742 40.4438C30.8022 39.9231 30.886 39.3929 30.9249 38.8588L28.4315 38.6774C28.4028 39.0715 28.341 39.4627 28.2465 39.8468L30.6742 40.4438ZM30.4775 41.2438L30.6742 40.4438L28.2465 39.8468L28.0498 40.6469L30.4775 41.2438ZM24.4801 47.2164C27.4375 46.509 29.75 44.2024 30.4775 41.2438L28.0498 40.6469C27.5446 42.7015 25.9408 44.2965 23.8985 44.785L24.4801 47.2164ZM20.5199 47.2164C21.8217 47.5279 23.1783 47.5279 24.4801 47.2164L23.8985 44.785C22.979 45.005 22.021 45.005 21.1015 44.785L20.5199 47.2164ZM14.5225 41.2438C15.25 44.2024 17.5625 46.509 20.5199 47.2164L21.1015 44.785C19.0592 44.2965 17.4554 42.7015 16.9502 40.6469L14.5225 41.2438ZM14.3258 40.4438L14.5225 41.2438L16.9502 40.6469L16.7535 39.8468L14.3258 40.4438ZM14.0751 38.8588C14.114 39.3929 14.1978 39.9231 14.3258 40.4438L16.7535 39.8468C16.659 39.4627 16.5972 39.0715 16.5685 38.6775L14.0751 38.8588Z" fill="#4D4D4D"/>
    </g>
</svg>
