<svg width="40" height="40" viewBox="0 0 40 40" fill="none" xmlns="http://www.w3.org/2000/svg">
    <g style="mix-blend-mode:difference">
        <path d="M22.331 12.7434C22.4917 12.2954 23.1333 12.2954 23.294 12.7434L23.7335 13.9685C23.785 14.1119 23.8992 14.2247 24.0444 14.2756L25.2848 14.7096C25.7384 14.8684 25.7384 15.502 25.2848 15.6607L24.0444 16.0948C23.8992 16.1456 23.785 16.2585 23.7335 16.4019L23.294 17.627C23.1333 18.075 22.4917 18.075 22.331 17.627L21.8915 16.4019C21.84 16.2585 21.7258 16.1456 21.5806 16.0948L20.3402 15.6607C19.8866 15.502 19.8866 14.8684 20.3402 14.7096L21.5806 14.2756C21.7258 14.2247 21.84 14.1119 21.8915 13.9685L22.331 12.7434Z" fill="#4D4D4D"/>
        <path d="M27.179 18.187C27.2862 17.8883 27.7138 17.8883 27.821 18.187L28.114 19.0037C28.1483 19.0993 28.2245 19.1745 28.3213 19.2084L29.1482 19.4978C29.4506 19.6036 29.4506 20.026 29.1482 20.1318L28.3213 20.4212C28.2245 20.4551 28.1483 20.5303 28.114 20.6259L27.821 21.4427C27.7138 21.7413 27.2862 21.7413 27.179 21.4427L26.886 20.6259C26.8517 20.5303 26.7755 20.4551 26.6787 20.4212L25.8518 20.1318C25.5494 20.026 25.5494 19.6036 25.8518 19.4978L26.6787 19.2084C26.7755 19.1745 26.8517 19.0993 26.886 19.0037L27.179 18.187Z" fill="#4D4D4D"/>
        <path d="M29.6155 5.4864C29.8482 4.83787 30.7768 4.83787 31.0095 5.4864L31.8069 7.70918C31.8814 7.91677 32.0468 8.08009 32.257 8.15364L34.5075 8.94125C35.1642 9.17105 35.1642 10.0882 34.5075 10.318L32.257 11.1056C32.0468 11.1792 31.8814 11.3425 31.8069 11.5501L31.0095 13.7729C30.7768 14.4214 29.8482 14.4214 29.6155 13.7729L28.8181 11.5501C28.7436 11.3425 28.5782 11.1792 28.368 11.1056L26.1175 10.318C25.4608 10.0882 25.4608 9.17105 26.1175 8.94125L28.368 8.15364C28.5782 8.08009 28.7436 7.91677 28.8181 7.70918L29.6155 5.4864Z" fill="#4D4D4D"/>
        <g style="mix-blend-mode:difference">
            <path d="M5 22.4328C5 29.3735 10.7903 35 17.9331 35C23.4318 35 28.129 31.6655 30 26.9638C28.5182 27.6402 26.8636 28.0182 25.1181 28.0182C18.769 28.0182 13.622 23.0168 13.622 16.8473C13.622 14.2671 14.5223 11.8912 16.0342 10C9.7917 10.8925 5 16.1189 5 22.4328Z" fill="#4D4D4D" fill-opacity="0.15"/>
            <path d="M5 22.4328C5 29.3735 10.7903 35 17.9331 35C23.4318 35 28.129 31.6655 30 26.9638C28.5182 27.6402 26.8636 28.0182 25.1181 28.0182C18.769 28.0182 13.622 23.0168 13.622 16.8473C13.622 14.2671 14.5223 11.8912 16.0342 10C9.7917 10.8925 5 16.1189 5 22.4328Z" stroke="#4D4D4D" stroke-width="2.5" stroke-linecap="round" stroke-linejoin="round"/>
        </g>
        <rect x="1.25" y="1.25" width="37.5" height="37.5" stroke="black" stroke-width="2.5"/>
    </g>
</svg>
